<svg xmlns="http://www.w3.org/2000/svg" width="30" height="30" fill="none">
  <path fill="#fff" d="M4.688 0A4.687 4.687 0 0 0 0 4.688v17.625A4.688 4.688 0 0 0 4.688 27h8.845a9.67 9.67 0 0 1-.933-1.875H4.688a2.812 2.812 0 0 1-2.813-2.813V4.688a2.813 2.813 0 0 1 2.813-2.812h17.625a2.812 2.812 0 0 1 2.812 2.813V12.6a9.67 9.67 0 0 1 1.875.933V4.688A4.688 4.688 0 0 0 22.312 0H4.688ZM21.75 12c.244 0 .486.009.725.026a.937.937 0 0 0-.913-1.151h-7.875a.938.938 0 0 0 0 1.875h4.306A9.72 9.72 0 0 1 21.75 12ZM4.5 5.437c0-.517.42-.937.938-.937h16.125a.937.937 0 0 1 0 1.875H5.438a.938.938 0 0 1-.938-.938Zm6.75 6.188a3.376 3.376 0 1 1-6.751 0 3.376 3.376 0 0 1 6.751 0Zm-1.875 0a1.5 1.5 0 1 0-3 0 1.5 1.5 0 0 0 3 0Zm-1.5 11.625a3.375 3.375 0 1 0 0-6.75 3.375 3.375 0 0 0 0 6.75Zm0-1.875a1.5 1.5 0 1 1 0-3 1.5 1.5 0 0 1 0 3ZM30 21.75a8.25 8.25 0 1 1-16.5 0 8.25 8.25 0 0 1 16.5 0Zm-7.5-5.25a.75.75 0 1 0-1.5 0V21h-4.5a.75.75 0 1 0 0 1.5H21V27a.75.75 0 1 0 1.5 0v-4.5H27a.75.75 0 1 0 0-1.5h-4.5v-4.5Z"/>
</svg>
