<svg width="22" height="17" viewBox="0 0 22 17" fill="none" xmlns="http://www.w3.org/2000/svg">
<path opacity="0.5" d="M0 14.3562C0 15.3073 0.784836 16.0789 1.75219 16.0789H19.2741C20.2415 16.0789 21.0263 15.3073 21.0263 14.3562V8.03947H0V14.3562ZM7.00877 11.9156C7.00877 11.6788 7.20589 11.485 7.44682 11.485H12.4114C12.6523 11.485 12.8494 11.6788 12.8494 11.9156V13.3513C12.8494 13.5881 12.6523 13.782 12.4114 13.782H7.44682C7.20589 13.782 7.00877 13.5881 7.00877 13.3513V11.9156ZM2.33626 11.9156C2.33626 11.6788 2.53338 11.485 2.77431 11.485H5.4026C5.64352 11.485 5.84064 11.6788 5.84064 11.9156V13.3513C5.84064 13.5881 5.64352 13.782 5.4026 13.782H2.77431C2.53338 13.782 2.33626 13.5881 2.33626 13.3513V11.9156ZM21.0263 1.72274V3.44549H0V1.72274C0 0.771646 0.784836 0 1.75219 0H19.2741C20.2415 0 21.0263 0.771646 21.0263 1.72274Z" fill="#535C6B"/>
</svg>
